<?xml version="1.0" encoding="UTF-8" standalone="no"?><svg xmlns="http://www.w3.org/2000/svg" xmlns:xlink="http://www.w3.org/1999/xlink" contentScriptType="application/ecmascript" contentStyleType="text/css" height="2708px" preserveAspectRatio="none" style="width:1201px;height:2708px;background:#FAFAFA;" version="1.1" viewBox="0 0 1201 2708" width="1201px" zoomAndPan="magnify"><defs><filter height="300%" id="f12cw9uolrmdwl" width="300%" x="-1" y="-1"><feGaussianBlur result="blurOut" stdDeviation="2.0"/><feColorMatrix in="blurOut" result="blurOut2" type="matrix" values="0 0 0 0 0 0 0 0 0 0 0 0 0 0 0 0 0 0 .4 0"/><feOffset dx="4.0" dy="4.0" in="blurOut2" result="blurOut3"/><feBlend in="SourceGraphic" in2="blurOut3" mode="normal"/></filter></defs><g><text fill="#000000" font-family="WenQuanYi Micro Hei" font-size="12" lengthAdjust="spacingAndGlyphs" textLength="112" x="540.25" y="21.2383">企业RAG — 登录流程</text><rect fill="#FAFAFA" filter="url(#f12cw9uolrmdwl)" height="775.5977" rx="4" ry="4" style="stroke: #000000; stroke-width: 2.0;" width="1164.5" x="13" y="535.3672"/><rect fill="#FAFAFA" height="142.4785" style="stroke: none; stroke-width: 1.0;" width="1164.5" x="13" y="1054.1445"/><rect fill="#FAFAFA" height="114.3418" style="stroke: none; stroke-width: 1.0;" width="1164.5" x="13" y="1196.623"/><line style="stroke: #A80036; stroke-width: 1.0; stroke-dasharray: 5.0,5.0;" x1="38" x2="38" y1="112.1367" y2="2622.9297"/><line style="stroke: #A80036; stroke-width: 1.0; stroke-dasharray: 5.0,5.0;" x1="182" x2="182" y1="112.1367" y2="2622.9297"/><line style="stroke: #A80036; stroke-width: 1.0; stroke-dasharray: 5.0,5.0;" x1="358" x2="358" y1="112.1367" y2="2622.9297"/><line style="stroke: #A80036; stroke-width: 1.0; stroke-dasharray: 5.0,5.0;" x1="550" x2="550" y1="112.1367" y2="2622.9297"/><line style="stroke: #A80036; stroke-width: 1.0; stroke-dasharray: 5.0,5.0;" x1="736" x2="736" y1="112.1367" y2="2622.9297"/><line style="stroke: #A80036; stroke-width: 1.0; stroke-dasharray: 5.0,5.0;" x1="915" x2="915" y1="112.1367" y2="2622.9297"/><line style="stroke: #A80036; stroke-width: 1.0; stroke-dasharray: 5.0,5.0;" x1="1052.5" x2="1052.5" y1="112.1367" y2="2622.9297"/><line style="stroke: #A80036; stroke-width: 1.0; stroke-dasharray: 5.0,5.0;" x1="1129.5" x2="1129.5" y1="112.1367" y2="2622.9297"/><text fill="#000000" font-family="WenQuanYi Micro Hei" font-size="12" lengthAdjust="spacingAndGlyphs" textLength="24" x="23" y="109.3066">用户</text><ellipse cx="38" cy="41.0684" fill="#FEFECE" filter="url(#f12cw9uolrmdwl)" rx="8" ry="8" style="stroke: #A80036; stroke-width: 2.0;"/><path d="M38,49.0684 L38,76.0684 M25,57.0684 L51,57.0684 M38,76.0684 L25,91.0684 M38,76.0684 L51,91.0684 " fill="none" filter="url(#f12cw9uolrmdwl)" style="stroke: #A80036; stroke-width: 2.0;"/><text fill="#000000" font-family="WenQuanYi Micro Hei" font-size="12" lengthAdjust="spacingAndGlyphs" textLength="24" x="23" y="2633.168">用户</text><ellipse cx="38" cy="2645.998" fill="#FEFECE" filter="url(#f12cw9uolrmdwl)" rx="8" ry="8" style="stroke: #A80036; stroke-width: 2.0;"/><path d="M38,2653.998 L38,2680.998 M25,2661.998 L51,2661.998 M38,2680.998 L25,2695.998 M38,2680.998 L51,2695.998 " fill="none" filter="url(#f12cw9uolrmdwl)" style="stroke: #A80036; stroke-width: 2.0;"/><rect fill="#FEFECE" filter="url(#f12cw9uolrmdwl)" height="28.0684" rx="4" ry="4" style="stroke: #A80036; stroke-width: 1.5;" width="72" x="144" y="79.0684"/><text fill="#000000" font-family="WenQuanYi Micro Hei" font-size="12" lengthAdjust="spacingAndGlyphs" textLength="58" x="151" y="97.3066">Vue 3 前端</text><rect fill="#FEFECE" filter="url(#f12cw9uolrmdwl)" height="28.0684" rx="4" ry="4" style="stroke: #A80036; stroke-width: 1.5;" width="72" x="144" y="2621.9297"/><text fill="#000000" font-family="WenQuanYi Micro Hei" font-size="12" lengthAdjust="spacingAndGlyphs" textLength="58" x="151" y="2640.168">Vue 3 前端</text><rect fill="#FEFECE" filter="url(#f12cw9uolrmdwl)" height="28.0684" rx="4" ry="4" style="stroke: #A80036; stroke-width: 1.5;" width="92" x="310" y="79.0684"/><text fill="#000000" font-family="WenQuanYi Micro Hei" font-size="12" lengthAdjust="spacingAndGlyphs" textLength="78" x="317" y="97.3066">UserController</text><rect fill="#FEFECE" filter="url(#f12cw9uolrmdwl)" height="28.0684" rx="4" ry="4" style="stroke: #A80036; stroke-width: 1.5;" width="92" x="310" y="2621.9297"/><text fill="#000000" font-family="WenQuanYi Micro Hei" font-size="12" lengthAdjust="spacingAndGlyphs" textLength="78" x="317" y="2640.168">UserController</text><rect fill="#FEFECE" filter="url(#f12cw9uolrmdwl)" height="28.0684" rx="4" ry="4" style="stroke: #A80036; stroke-width: 1.5;" width="105" x="496" y="79.0684"/><text fill="#000000" font-family="WenQuanYi Micro Hei" font-size="12" lengthAdjust="spacingAndGlyphs" textLength="91" x="503" y="97.3066">RateLimitService</text><rect fill="#FEFECE" filter="url(#f12cw9uolrmdwl)" height="28.0684" rx="4" ry="4" style="stroke: #A80036; stroke-width: 1.5;" width="105" x="496" y="2621.9297"/><text fill="#000000" font-family="WenQuanYi Micro Hei" font-size="12" lengthAdjust="spacingAndGlyphs" textLength="91" x="503" y="2640.168">RateLimitService</text><rect fill="#FEFECE" filter="url(#f12cw9uolrmdwl)" height="28.0684" rx="4" ry="4" style="stroke: #A80036; stroke-width: 1.5;" width="78" x="695" y="79.0684"/><text fill="#000000" font-family="WenQuanYi Micro Hei" font-size="12" lengthAdjust="spacingAndGlyphs" textLength="64" x="702" y="97.3066">UserService</text><rect fill="#FEFECE" filter="url(#f12cw9uolrmdwl)" height="28.0684" rx="4" ry="4" style="stroke: #A80036; stroke-width: 1.5;" width="78" x="695" y="2621.9297"/><text fill="#000000" font-family="WenQuanYi Micro Hei" font-size="12" lengthAdjust="spacingAndGlyphs" textLength="64" x="702" y="2640.168">UserService</text><rect fill="#FEFECE" filter="url(#f12cw9uolrmdwl)" height="28.0684" rx="4" ry="4" style="stroke: #A80036; stroke-width: 1.5;" width="92" x="867" y="79.0684"/><text fill="#000000" font-family="WenQuanYi Micro Hei" font-size="12" lengthAdjust="spacingAndGlyphs" textLength="78" x="874" y="97.3066">AuthController</text><rect fill="#FEFECE" filter="url(#f12cw9uolrmdwl)" height="28.0684" rx="4" ry="4" style="stroke: #A80036; stroke-width: 1.5;" width="92" x="867" y="2621.9297"/><text fill="#000000" font-family="WenQuanYi Micro Hei" font-size="12" lengthAdjust="spacingAndGlyphs" textLength="78" x="874" y="2640.168">AuthController</text><text fill="#000000" font-family="WenQuanYi Micro Hei" font-size="12" lengthAdjust="spacingAndGlyphs" textLength="38" x="1031" y="95.2383">MySQL</text><text fill="#000000" font-family="WenQuanYi Micro Hei" font-size="12" lengthAdjust="spacingAndGlyphs" textLength="53" x="1023.5" y="109.3066">(users 表)</text><path d="M1035,48 C1035,38 1053,38 1053,38 C1053,38 1071,38 1071,48 L1071,74 C1071,84 1053,84 1053,84 C1053,84 1035,84 1035,74 L1035,48 " fill="#FEFECE" filter="url(#f12cw9uolrmdwl)" style="stroke: #000000; stroke-width: 1.5;"/><path d="M1035,48 C1035,58 1053,58 1053,58 C1053,58 1071,58 1071,48 " fill="none" style="stroke: #000000; stroke-width: 1.5;"/><text fill="#000000" font-family="WenQuanYi Micro Hei" font-size="12" lengthAdjust="spacingAndGlyphs" textLength="38" x="1031" y="2633.168">MySQL</text><text fill="#000000" font-family="WenQuanYi Micro Hei" font-size="12" lengthAdjust="spacingAndGlyphs" textLength="53" x="1023.5" y="2647.2363">(users 表)</text><path d="M1035,2660.0664 C1035,2650.0664 1053,2650.0664 1053,2650.0664 C1053,2650.0664 1071,2650.0664 1071,2660.0664 L1071,2686.0664 C1071,2696.0664 1053,2696.0664 1053,2696.0664 C1053,2696.0664 1035,2696.0664 1035,2686.0664 L1035,2660.0664 " fill="#FEFECE" filter="url(#f12cw9uolrmdwl)" style="stroke: #000000; stroke-width: 1.5;"/><path d="M1035,2660.0664 C1035,2670.0664 1053,2670.0664 1053,2670.0664 C1053,2670.0664 1071,2670.0664 1071,2660.0664 " fill="none" style="stroke: #000000; stroke-width: 1.5;"/><text fill="#000000" font-family="WenQuanYi Micro Hei" font-size="12" lengthAdjust="spacingAndGlyphs" textLength="30" x="1112" y="95.2383">Redis</text><text fill="#000000" font-family="WenQuanYi Micro Hei" font-size="12" lengthAdjust="spacingAndGlyphs" textLength="69" x="1092.5" y="109.3066">(Token 缓存)</text><path d="M1112,48 C1112,38 1130,38 1130,38 C1130,38 1148,38 1148,48 L1148,74 C1148,84 1130,84 1130,84 C1130,84 1112,84 1112,74 L1112,48 " fill="#FEFECE" filter="url(#f12cw9uolrmdwl)" style="stroke: #000000; stroke-width: 1.5;"/><path d="M1112,48 C1112,58 1130,58 1130,58 C1130,58 1148,58 1148,48 " fill="none" style="stroke: #000000; stroke-width: 1.5;"/><text fill="#000000" font-family="WenQuanYi Micro Hei" font-size="12" lengthAdjust="spacingAndGlyphs" textLength="30" x="1112" y="2633.168">Redis</text><text fill="#000000" font-family="WenQuanYi Micro Hei" font-size="12" lengthAdjust="spacingAndGlyphs" textLength="69" x="1092.5" y="2647.2363">(Token 缓存)</text><path d="M1112,2660.0664 C1112,2650.0664 1130,2650.0664 1130,2650.0664 C1130,2650.0664 1148,2650.0664 1148,2660.0664 L1148,2686.0664 C1148,2696.0664 1130,2696.0664 1130,2696.0664 C1130,2696.0664 1112,2696.0664 1112,2686.0664 L1112,2660.0664 " fill="#FEFECE" filter="url(#f12cw9uolrmdwl)" style="stroke: #000000; stroke-width: 1.5;"/><path d="M1112,2660.0664 C1112,2670.0664 1130,2670.0664 1130,2670.0664 C1130,2670.0664 1148,2670.0664 1148,2660.0664 " fill="none" style="stroke: #000000; stroke-width: 1.5;"/><rect fill="#EEEEEE" filter="url(#f12cw9uolrmdwl)" height="3" style="stroke: #EEEEEE; stroke-width: 1.0;" width="1186.5" x="3" y="142.1709"/><line style="stroke: #000000; stroke-width: 1.0;" x1="3" x2="1189.5" y1="142.1709" y2="142.1709"/><line style="stroke: #000000; stroke-width: 1.0;" x1="3" x2="1189.5" y1="145.1709" y2="145.1709"/><rect fill="#EEEEEE" filter="url(#f12cw9uolrmdwl)" height="22.0684" style="stroke: #000000; stroke-width: 2.0;" width="41.75" x="575.375" y="132.1367"/><text fill="#000000" font-family="WenQuanYi Micro Hei" font-size="12" font-weight="bold" lengthAdjust="spacingAndGlyphs" textLength="24.75" x="581.375" y="147.375">登录</text><polygon fill="#A80036" points="170,180.2734,180,184.2734,170,188.2734,174,184.2734" style="stroke: #A80036; stroke-width: 1.0;"/><line style="stroke: #A80036; stroke-width: 2.0;" x1="38" x2="176" y1="184.2734" y2="184.2734"/><text fill="#000000" font-family="WenQuanYi Micro Hei" font-size="12" lengthAdjust="spacingAndGlyphs" textLength="96" x="45" y="179.4434">输入用户名、密码</text><polygon fill="#A80036" points="346,250.5469,356,254.5469,346,258.5469,350,254.5469" style="stroke: #A80036; stroke-width: 1.0;"/><line style="stroke: #A80036; stroke-width: 2.0;" x1="182" x2="352" y1="254.5469" y2="254.5469"/><text fill="#000000" font-family="WenQuanYi Micro Hei" font-size="12" lengthAdjust="spacingAndGlyphs" textLength="108" x="189" y="207.5117">POST /api/v1/users/</text><text fill="#000000" font-family="WenQuanYi Micro Hei" font-size="12" lengthAdjust="spacingAndGlyphs" textLength="26" x="189" y="221.5801">login</text><text fill="#000000" font-family="WenQuanYi Micro Hei" font-size="12" lengthAdjust="spacingAndGlyphs" textLength="119" x="189" y="235.6484">{username, password</text><text fill="#000000" font-family="WenQuanYi Micro Hei" font-size="12" lengthAdjust="spacingAndGlyphs" textLength="4" x="189" y="249.7168">}</text><polygon fill="#A80036" points="538.5,292.6836,548.5,296.6836,538.5,300.6836,542.5,296.6836" style="stroke: #A80036; stroke-width: 1.0;"/><line style="stroke: #A80036; stroke-width: 2.0;" x1="358" x2="544.5" y1="296.6836" y2="296.6836"/><text fill="#000000" font-family="WenQuanYi Micro Hei" font-size="12" lengthAdjust="spacingAndGlyphs" textLength="88" x="365" y="277.7852">checkLoginByIp(</text><text fill="#000000" font-family="WenQuanYi Micro Hei" font-size="12" lengthAdjust="spacingAndGlyphs" textLength="45" x="365" y="291.8535">clientIp)</text><polygon fill="#A80036" points="369,320.752,359,324.752,369,328.752,365,324.752" style="stroke: #A80036; stroke-width: 1.0;"/><line style="stroke: #A80036; stroke-width: 2.0; stroke-dasharray: 2.0,2.0;" x1="363" x2="549.5" y1="324.752" y2="324.752"/><text fill="#000000" font-family="WenQuanYi Micro Hei" font-size="12" lengthAdjust="spacingAndGlyphs" textLength="86" x="375" y="319.9219">IP 速率检查通过</text><polygon fill="#A80036" points="724,362.8887,734,366.8887,724,370.8887,728,366.8887" style="stroke: #A80036; stroke-width: 1.0;"/><line style="stroke: #A80036; stroke-width: 2.0;" x1="358" x2="730" y1="366.8887" y2="366.8887"/><text fill="#000000" font-family="WenQuanYi Micro Hei" font-size="12" lengthAdjust="spacingAndGlyphs" textLength="99" x="365" y="347.9902">authenticateUser(</text><text fill="#000000" font-family="WenQuanYi Micro Hei" font-size="12" lengthAdjust="spacingAndGlyphs" textLength="119" x="365" y="362.0586">username, password)</text><polygon fill="#A80036" points="1041,405.0254,1051,409.0254,1041,413.0254,1045,409.0254" style="stroke: #A80036; stroke-width: 1.0;"/><line style="stroke: #A80036; stroke-width: 2.0;" x1="736" x2="1047" y1="409.0254" y2="409.0254"/><text fill="#000000" font-family="WenQuanYi Micro Hei" font-size="12" lengthAdjust="spacingAndGlyphs" textLength="118" x="743" y="390.127">SELECT * FROM users</text><text fill="#000000" font-family="WenQuanYi Micro Hei" font-size="12" lengthAdjust="spacingAndGlyphs" textLength="115" x="743" y="404.1953">WHERE username = ?</text><polygon fill="#A80036" points="747,447.1621,737,451.1621,747,455.1621,743,451.1621" style="stroke: #A80036; stroke-width: 1.0;"/><line style="stroke: #A80036; stroke-width: 2.0; stroke-dasharray: 2.0,2.0;" x1="741" x2="1052" y1="451.1621" y2="451.1621"/><text fill="#000000" font-family="WenQuanYi Micro Hei" font-size="12" lengthAdjust="spacingAndGlyphs" textLength="107" x="753" y="432.2637">user 实体 (含 BCrypt</text><text fill="#000000" font-family="WenQuanYi Micro Hei" font-size="12" lengthAdjust="spacingAndGlyphs" textLength="28" x="753" y="446.332">哈希)</text><line style="stroke: #A80036; stroke-width: 2.0;" x1="736" x2="778" y1="507.3672" y2="507.3672"/><line style="stroke: #A80036; stroke-width: 2.0;" x1="778" x2="778" y1="507.3672" y2="520.3672"/><line style="stroke: #A80036; stroke-width: 2.0;" x1="737" x2="778" y1="520.3672" y2="520.3672"/><polygon fill="#A80036" points="747,516.3672,737,520.3672,747,524.3672,743,520.3672" style="stroke: #A80036; stroke-width: 1.0;"/><text fill="#000000" font-family="WenQuanYi Micro Hei" font-size="12" lengthAdjust="spacingAndGlyphs" textLength="74" x="743" y="474.4004">PasswordUtil.</text><text fill="#000000" font-family="WenQuanYi Micro Hei" font-size="12" lengthAdjust="spacingAndGlyphs" textLength="108" x="743" y="488.4688">matches(password,</text><text fill="#000000" font-family="WenQuanYi Micro Hei" font-size="12" lengthAdjust="spacingAndGlyphs" textLength="31" x="743" y="502.5371">hash)</text><path d="M17,535.3672 L73,535.3672 L73,541.3672 L63,551.3672 L13,551.3672 L13,539.3672 " fill="#EEEEEE" style="stroke: #000000; stroke-width: 1.0;"/><rect fill="none" height="775.5977" rx="4" ry="4" style="stroke: #000000; stroke-width: 2.0;" width="1164.5" x="13" y="535.3672"/><text fill="#000000" font-family="WenQuanYi Micro Hei" font-size="12" font-weight="bold" lengthAdjust="spacingAndGlyphs" textLength="15.125" x="28" y="547.6055">alt</text><text fill="#000000" font-family="WenQuanYi Micro Hei" font-size="12" font-weight="bold" lengthAdjust="spacingAndGlyphs" textLength="58.25" x="88" y="548.6055">[密码匹配]</text><line style="stroke: #A80036; stroke-width: 2.0;" x1="736" x2="778" y1="641.8457" y2="641.8457"/><line style="stroke: #A80036; stroke-width: 2.0;" x1="778" x2="778" y1="641.8457" y2="654.8457"/><line style="stroke: #A80036; stroke-width: 2.0;" x1="737" x2="778" y1="654.8457" y2="654.8457"/><polygon fill="#A80036" points="747,650.8457,737,654.8457,747,658.8457,743,654.8457" style="stroke: #A80036; stroke-width: 1.0;"/><text fill="#000000" font-family="WenQuanYi Micro Hei" font-size="12" lengthAdjust="spacingAndGlyphs" textLength="43" x="743" y="566.6738">jwtUtils.</text><text fill="#000000" font-family="WenQuanYi Micro Hei" font-size="12" lengthAdjust="spacingAndGlyphs" textLength="87" x="743" y="580.7422">generateToken(</text><text fill="#000000" font-family="WenQuanYi Micro Hei" font-size="12" lengthAdjust="spacingAndGlyphs" textLength="60" x="743" y="594.8105">username)</text><text fill="#000000" font-family="WenQuanYi Micro Hei" font-size="12" lengthAdjust="spacingAndGlyphs" textLength="107" x="743" y="608.8789">claims: userId, role,</text><text fill="#000000" font-family="WenQuanYi Micro Hei" font-size="12" lengthAdjust="spacingAndGlyphs" textLength="43" x="743" y="622.9473">orgTags</text><text fill="#000000" font-family="WenQuanYi Micro Hei" font-size="12" lengthAdjust="spacingAndGlyphs" textLength="73" x="743" y="637.0156">有效期 1 小时</text><line style="stroke: #A80036; stroke-width: 2.0;" x1="736" x2="778" y1="753.2559" y2="753.2559"/><line style="stroke: #A80036; stroke-width: 2.0;" x1="778" x2="778" y1="753.2559" y2="766.2559"/><line style="stroke: #A80036; stroke-width: 2.0;" x1="737" x2="778" y1="766.2559" y2="766.2559"/><polygon fill="#A80036" points="747,762.2559,737,766.2559,747,770.2559,743,766.2559" style="stroke: #A80036; stroke-width: 1.0;"/><text fill="#000000" font-family="WenQuanYi Micro Hei" font-size="12" lengthAdjust="spacingAndGlyphs" textLength="43" x="743" y="678.084">jwtUtils.</text><text fill="#000000" font-family="WenQuanYi Micro Hei" font-size="12" lengthAdjust="spacingAndGlyphs" textLength="124" x="743" y="692.1523">generateRefreshToken</text><text fill="#000000" font-family="WenQuanYi Micro Hei" font-size="12" lengthAdjust="spacingAndGlyphs" textLength="64" x="743" y="706.2207">(username)</text><text fill="#000000" font-family="WenQuanYi Micro Hei" font-size="12" lengthAdjust="spacingAndGlyphs" textLength="120" x="743" y="720.2891">claims: type="refresh"</text><text fill="#000000" font-family="WenQuanYi Micro Hei" font-size="12" lengthAdjust="spacingAndGlyphs" textLength="41" x="743" y="734.3574">, userId</text><text fill="#000000" font-family="WenQuanYi Micro Hei" font-size="12" lengthAdjust="spacingAndGlyphs" textLength="61" x="743" y="748.4258">有效期 7 天</text><polygon fill="#A80036" points="1118,818.4609,1128,822.4609,1118,826.4609,1122,822.4609" style="stroke: #A80036; stroke-width: 1.0;"/><line style="stroke: #A80036; stroke-width: 2.0;" x1="736" x2="1124" y1="822.4609" y2="822.4609"/><text fill="#000000" font-family="WenQuanYi Micro Hei" font-size="12" lengthAdjust="spacingAndGlyphs" textLength="107" x="743" y="789.4941">SET token:{tokenId}</text><text fill="#000000" font-family="WenQuanYi Micro Hei" font-size="12" lengthAdjust="spacingAndGlyphs" textLength="70" x="743" y="803.5625">value: userId</text><text fill="#000000" font-family="WenQuanYi Micro Hei" font-size="12" lengthAdjust="spacingAndGlyphs" textLength="68" x="743" y="817.6309">EXPIRE 3600</text><polygon fill="#A80036" points="747,846.5293,737,850.5293,747,854.5293,743,850.5293" style="stroke: #A80036; stroke-width: 1.0;"/><line style="stroke: #A80036; stroke-width: 2.0; stroke-dasharray: 2.0,2.0;" x1="741" x2="1129" y1="850.5293" y2="850.5293"/><text fill="#000000" font-family="WenQuanYi Micro Hei" font-size="12" lengthAdjust="spacingAndGlyphs" textLength="16" x="753" y="845.6992">OK</text><polygon fill="#A80036" points="369,874.5977,359,878.5977,369,882.5977,365,878.5977" style="stroke: #A80036; stroke-width: 1.0;"/><line style="stroke: #A80036; stroke-width: 2.0; stroke-dasharray: 2.0,2.0;" x1="363" x2="735" y1="878.5977" y2="878.5977"/><text fill="#000000" font-family="WenQuanYi Micro Hei" font-size="12" lengthAdjust="spacingAndGlyphs" textLength="117" x="375" y="873.7676">{token, refreshToken}</text><polygon fill="#A80036" points="193,930.8027,183,934.8027,193,938.8027,189,934.8027" style="stroke: #A80036; stroke-width: 1.0;"/><line style="stroke: #A80036; stroke-width: 2.0; stroke-dasharray: 2.0,2.0;" x1="187" x2="357" y1="934.8027" y2="934.8027"/><text fill="#000000" font-family="WenQuanYi Micro Hei" font-size="12" lengthAdjust="spacingAndGlyphs" textLength="82" x="199" y="901.8359">200 {code:200,</text><text fill="#000000" font-family="WenQuanYi Micro Hei" font-size="12" lengthAdjust="spacingAndGlyphs" textLength="119" x="199" y="915.9043">message, data:{token</text><text fill="#000000" font-family="WenQuanYi Micro Hei" font-size="12" lengthAdjust="spacingAndGlyphs" textLength="86" x="199" y="929.9727">, refreshToken}}</text><line style="stroke: #A80036; stroke-width: 2.0;" x1="182" x2="224" y1="1005.0762" y2="1005.0762"/><line style="stroke: #A80036; stroke-width: 2.0;" x1="224" x2="224" y1="1005.0762" y2="1018.0762"/><line style="stroke: #A80036; stroke-width: 2.0;" x1="183" x2="224" y1="1018.0762" y2="1018.0762"/><polygon fill="#A80036" points="193,1014.0762,183,1018.0762,193,1022.0762,189,1018.0762" style="stroke: #A80036; stroke-width: 1.0;"/><text fill="#000000" font-family="WenQuanYi Micro Hei" font-size="12" lengthAdjust="spacingAndGlyphs" textLength="114" x="189" y="958.041">localStorage.setItem</text><text fill="#000000" font-family="WenQuanYi Micro Hei" font-size="12" lengthAdjust="spacingAndGlyphs" textLength="82" x="189" y="972.1094">('token', token)</text><text fill="#000000" font-family="WenQuanYi Micro Hei" font-size="12" lengthAdjust="spacingAndGlyphs" textLength="85" x="189" y="986.1777">('refreshToken',</text><text fill="#000000" font-family="WenQuanYi Micro Hei" font-size="12" lengthAdjust="spacingAndGlyphs" textLength="76" x="189" y="1000.2461">refreshToken)</text><polygon fill="#A80036" points="49,1042.1445,39,1046.1445,49,1050.1445,45,1046.1445" style="stroke: #A80036; stroke-width: 1.0;"/><line style="stroke: #A80036; stroke-width: 2.0; stroke-dasharray: 2.0,2.0;" x1="43" x2="181" y1="1046.1445" y2="1046.1445"/><text fill="#000000" font-family="WenQuanYi Micro Hei" font-size="12" lengthAdjust="spacingAndGlyphs" textLength="96" x="55" y="1041.3145">跳转至原请求页面</text><line style="stroke: #000000; stroke-width: 1.0; stroke-dasharray: 2.0,2.0;" x1="13" x2="1177.5" y1="1055.1445" y2="1055.1445"/><text fill="#000000" font-family="WenQuanYi Micro Hei" font-size="12" font-weight="bold" lengthAdjust="spacingAndGlyphs" textLength="70.625" x="18" y="1066.3828">[密码不匹配]</text><polygon fill="#A80036" points="369,1100.3496,359,1104.3496,369,1108.3496,365,1104.3496" style="stroke: #A80036; stroke-width: 1.0;"/><line style="stroke: #A80036; stroke-width: 2.0; stroke-dasharray: 2.0,2.0;" x1="363" x2="735" y1="1104.3496" y2="1104.3496"/><text fill="#000000" font-family="WenQuanYi Micro Hei" font-size="12" lengthAdjust="spacingAndGlyphs" textLength="95" x="375" y="1085.4512">CustomException</text><text fill="#000000" font-family="WenQuanYi Micro Hei" font-size="12" lengthAdjust="spacingAndGlyphs" textLength="118" x="375" y="1099.5195">("Invalid credentials")</text><polygon fill="#A80036" points="193,1156.5547,183,1160.5547,193,1164.5547,189,1160.5547" style="stroke: #A80036; stroke-width: 1.0;"/><line style="stroke: #A80036; stroke-width: 2.0; stroke-dasharray: 2.0,2.0;" x1="187" x2="357" y1="1160.5547" y2="1160.5547"/><text fill="#000000" font-family="WenQuanYi Micro Hei" font-size="12" lengthAdjust="spacingAndGlyphs" textLength="82" x="199" y="1127.5879">401 {code:401,</text><text fill="#000000" font-family="WenQuanYi Micro Hei" font-size="12" lengthAdjust="spacingAndGlyphs" textLength="94" x="199" y="1141.6563">message:"Invalid</text><text fill="#000000" font-family="WenQuanYi Micro Hei" font-size="12" lengthAdjust="spacingAndGlyphs" textLength="70" x="199" y="1155.7246">credentials"}</text><polygon fill="#A80036" points="49,1184.623,39,1188.623,49,1192.623,45,1188.623" style="stroke: #A80036; stroke-width: 1.0;"/><line style="stroke: #A80036; stroke-width: 2.0; stroke-dasharray: 2.0,2.0;" x1="43" x2="181" y1="1188.623" y2="1188.623"/><text fill="#000000" font-family="WenQuanYi Micro Hei" font-size="12" lengthAdjust="spacingAndGlyphs" textLength="120" x="55" y="1183.793">提示错误，留在登录页</text><line style="stroke: #000000; stroke-width: 1.0; stroke-dasharray: 2.0,2.0;" x1="13" x2="1177.5" y1="1197.623" y2="1197.623"/><text fill="#000000" font-family="WenQuanYi Micro Hei" font-size="12" font-weight="bold" lengthAdjust="spacingAndGlyphs" textLength="83" x="18" y="1208.8613">[速率限制触发]</text><polygon fill="#A80036" points="369,1228.7598,359,1232.7598,369,1236.7598,365,1232.7598" style="stroke: #A80036; stroke-width: 1.0;"/><line style="stroke: #A80036; stroke-width: 2.0; stroke-dasharray: 2.0,2.0;" x1="363" x2="549.5" y1="1232.7598" y2="1232.7598"/><text fill="#000000" font-family="WenQuanYi Micro Hei" font-size="12" lengthAdjust="spacingAndGlyphs" textLength="158" x="375" y="1227.9297">RateLimitExceededException</text><polygon fill="#A80036" points="193,1270.8965,183,1274.8965,193,1278.8965,189,1274.8965" style="stroke: #A80036; stroke-width: 1.0;"/><line style="stroke: #A80036; stroke-width: 2.0; stroke-dasharray: 2.0,2.0;" x1="187" x2="357" y1="1274.8965" y2="1274.8965"/><text fill="#000000" font-family="WenQuanYi Micro Hei" font-size="12" lengthAdjust="spacingAndGlyphs" textLength="82" x="199" y="1255.998">429 {code:429,</text><text fill="#000000" font-family="WenQuanYi Micro Hei" font-size="12" lengthAdjust="spacingAndGlyphs" textLength="115" x="199" y="1270.0664">retryAfterSeconds: N}</text><polygon fill="#A80036" points="49,1298.9648,39,1302.9648,49,1306.9648,45,1302.9648" style="stroke: #A80036; stroke-width: 1.0;"/><line style="stroke: #A80036; stroke-width: 2.0; stroke-dasharray: 2.0,2.0;" x1="43" x2="181" y1="1302.9648" y2="1302.9648"/><text fill="#000000" font-family="WenQuanYi Micro Hei" font-size="12" lengthAdjust="spacingAndGlyphs" textLength="72" x="55" y="1298.1348">提示稍后重试</text><rect fill="#EEEEEE" filter="url(#f12cw9uolrmdwl)" height="3" style="stroke: #EEEEEE; stroke-width: 1.0;" width="1186.5" x="3" y="1337.999"/><line style="stroke: #000000; stroke-width: 1.0;" x1="3" x2="1189.5" y1="1337.999" y2="1337.999"/><line style="stroke: #000000; stroke-width: 1.0;" x1="3" x2="1189.5" y1="1340.999" y2="1340.999"/><rect fill="#EEEEEE" filter="url(#f12cw9uolrmdwl)" height="22.0684" style="stroke: #000000; stroke-width: 2.0;" width="91.25" x="550.625" y="1327.9648"/><text fill="#000000" font-family="WenQuanYi Micro Hei" font-size="12" font-weight="bold" lengthAdjust="spacingAndGlyphs" textLength="74.25" x="556.625" y="1343.2031">获取用户信息</text><polygon fill="#A80036" points="346,1404.2383,356,1408.2383,346,1412.2383,350,1408.2383" style="stroke: #A80036; stroke-width: 1.0;"/><line style="stroke: #A80036; stroke-width: 2.0;" x1="182" x2="352" y1="1408.2383" y2="1408.2383"/><text fill="#000000" font-family="WenQuanYi Micro Hei" font-size="12" lengthAdjust="spacingAndGlyphs" textLength="117" x="189" y="1375.2715">GET /api/v1/users/me</text><text fill="#000000" font-family="WenQuanYi Micro Hei" font-size="12" lengthAdjust="spacingAndGlyphs" textLength="119" x="189" y="1389.3398">(Authorization: Bearer</text><text fill="#000000" font-family="WenQuanYi Micro Hei" font-size="12" lengthAdjust="spacingAndGlyphs" textLength="35" x="189" y="1403.4082">token)</text><line style="stroke: #A80036; stroke-width: 2.0;" x1="358" x2="400" y1="1464.4434" y2="1464.4434"/><line style="stroke: #A80036; stroke-width: 2.0;" x1="400" x2="400" y1="1464.4434" y2="1477.4434"/><line style="stroke: #A80036; stroke-width: 2.0;" x1="359" x2="400" y1="1477.4434" y2="1477.4434"/><polygon fill="#A80036" points="369,1473.4434,359,1477.4434,369,1481.4434,365,1477.4434" style="stroke: #A80036; stroke-width: 1.0;"/><text fill="#000000" font-family="WenQuanYi Micro Hei" font-size="12" lengthAdjust="spacingAndGlyphs" textLength="120" x="365" y="1431.4766">jwtUtils.validateToken</text><text fill="#000000" font-family="WenQuanYi Micro Hei" font-size="12" lengthAdjust="spacingAndGlyphs" textLength="39" x="365" y="1445.5449">(token)</text><text fill="#000000" font-family="WenQuanYi Micro Hei" font-size="12" lengthAdjust="spacingAndGlyphs" textLength="83" x="365" y="1459.6133">提取 username</text><polygon fill="#A80036" points="1041,1515.5801,1051,1519.5801,1041,1523.5801,1045,1519.5801" style="stroke: #A80036; stroke-width: 1.0;"/><line style="stroke: #A80036; stroke-width: 2.0;" x1="358" x2="1047" y1="1519.5801" y2="1519.5801"/><text fill="#000000" font-family="WenQuanYi Micro Hei" font-size="12" lengthAdjust="spacingAndGlyphs" textLength="118" x="365" y="1500.6816">SELECT * FROM users</text><text fill="#000000" font-family="WenQuanYi Micro Hei" font-size="12" lengthAdjust="spacingAndGlyphs" textLength="115" x="365" y="1514.75">WHERE username = ?</text><polygon fill="#A80036" points="369,1571.7852,359,1575.7852,369,1579.7852,365,1575.7852" style="stroke: #A80036; stroke-width: 1.0;"/><line style="stroke: #A80036; stroke-width: 2.0; stroke-dasharray: 2.0,2.0;" x1="363" x2="1052" y1="1575.7852" y2="1575.7852"/><text fill="#000000" font-family="WenQuanYi Micro Hei" font-size="12" lengthAdjust="spacingAndGlyphs" textLength="106" x="375" y="1542.8184">user (id, username,</text><text fill="#000000" font-family="WenQuanYi Micro Hei" font-size="12" lengthAdjust="spacingAndGlyphs" textLength="73" x="375" y="1556.8867">role, orgTags,</text><text fill="#000000" font-family="WenQuanYi Micro Hei" font-size="12" lengthAdjust="spacingAndGlyphs" textLength="64" x="375" y="1570.9551">primaryOrg)</text><polygon fill="#A80036" points="193,1627.9902,183,1631.9902,193,1635.9902,189,1631.9902" style="stroke: #A80036; stroke-width: 1.0;"/><line style="stroke: #A80036; stroke-width: 2.0; stroke-dasharray: 2.0,2.0;" x1="187" x2="357" y1="1631.9902" y2="1631.9902"/><text fill="#000000" font-family="WenQuanYi Micro Hei" font-size="12" lengthAdjust="spacingAndGlyphs" textLength="117" x="199" y="1599.0234">200 {code:200, data:{</text><text fill="#000000" font-family="WenQuanYi Micro Hei" font-size="12" lengthAdjust="spacingAndGlyphs" textLength="104" x="199" y="1613.0918">id, userName, role,</text><text fill="#000000" font-family="WenQuanYi Micro Hei" font-size="12" lengthAdjust="spacingAndGlyphs" textLength="117" x="199" y="1627.1602">orgTags, primaryOrg}}</text><line style="stroke: #A80036; stroke-width: 2.0;" x1="182" x2="224" y1="1674.127" y2="1674.127"/><line style="stroke: #A80036; stroke-width: 2.0;" x1="224" x2="224" y1="1674.127" y2="1687.127"/><line style="stroke: #A80036; stroke-width: 2.0;" x1="183" x2="224" y1="1687.127" y2="1687.127"/><polygon fill="#A80036" points="193,1683.127,183,1687.127,193,1691.127,189,1687.127" style="stroke: #A80036; stroke-width: 1.0;"/><text fill="#000000" font-family="WenQuanYi Micro Hei" font-size="12" lengthAdjust="spacingAndGlyphs" textLength="84" x="189" y="1655.2285">更新 authStore.</text><text fill="#000000" font-family="WenQuanYi Micro Hei" font-size="12" lengthAdjust="spacingAndGlyphs" textLength="45" x="189" y="1669.2969">userInfo</text><rect fill="#EEEEEE" filter="url(#f12cw9uolrmdwl)" height="3" style="stroke: #EEEEEE; stroke-width: 1.0;" width="1186.5" x="3" y="1715.1611"/><line style="stroke: #000000; stroke-width: 1.0;" x1="3" x2="1189.5" y1="1715.1611" y2="1715.1611"/><line style="stroke: #000000; stroke-width: 1.0;" x1="3" x2="1189.5" y1="1718.1611" y2="1718.1611"/><rect fill="#EEEEEE" filter="url(#f12cw9uolrmdwl)" height="22.0684" style="stroke: #000000; stroke-width: 2.0;" width="80.625" x="555.9375" y="1705.127"/><text fill="#000000" font-family="WenQuanYi Micro Hei" font-size="12" font-weight="bold" lengthAdjust="spacingAndGlyphs" textLength="63.625" x="561.9375" y="1720.3652">Token 刷新</text><path d="M126,1746.1953 L126,1776.1953 A4,4 0 0 0 130,1780.1953 L1180,1780.1953 A4,4 0 0 0 1184,1776.1953 L1184,1752.1953 L1174,1742.1953 L130,1742.1953 A4,4 0 0 0 126,1746.1953 " fill="#FBFB77" filter="url(#f12cw9uolrmdwl)" style="stroke: #A80036; stroke-width: 1.0;"/><path d="M1174,1742.1953 L1174,1750.1953 A2,2 0 0 0 1176,1752.1953 L1184,1752.1953 L1174,1742.1953 " fill="#FBFB77" style="stroke: #A80036; stroke-width: 1.0;"/><text fill="#000000" font-family="WenQuanYi Micro Hei" font-size="12" lengthAdjust="spacingAndGlyphs" textLength="266" x="515.75" y="1758.4336">请求拦截器检测到 Token 即将过期 (剩余 &lt; 5 分钟)</text><text fill="#000000" font-family="WenQuanYi Micro Hei" font-size="12" lengthAdjust="spacingAndGlyphs" textLength="254" x="515.75" y="1772.502">或后端返回过期码 9999/9998/3333 时自动触发</text><polygon fill="#A80036" points="903,1833.5371,913,1837.5371,903,1841.5371,907,1837.5371" style="stroke: #A80036; stroke-width: 1.0;"/><line style="stroke: #A80036; stroke-width: 2.0;" x1="182" x2="909" y1="1837.5371" y2="1837.5371"/><text fill="#000000" font-family="WenQuanYi Micro Hei" font-size="12" lengthAdjust="spacingAndGlyphs" textLength="103" x="189" y="1804.5703">POST /api/v1/auth/</text><text fill="#000000" font-family="WenQuanYi Micro Hei" font-size="12" lengthAdjust="spacingAndGlyphs" textLength="72" x="189" y="1818.6387">refreshToken</text><text fill="#000000" font-family="WenQuanYi Micro Hei" font-size="12" lengthAdjust="spacingAndGlyphs" textLength="80" x="189" y="1832.707">{refreshToken}</text><line style="stroke: #A80036; stroke-width: 2.0;" x1="915" x2="957" y1="1907.8105" y2="1907.8105"/><line style="stroke: #A80036; stroke-width: 2.0;" x1="957" x2="957" y1="1907.8105" y2="1920.8105"/><line style="stroke: #A80036; stroke-width: 2.0;" x1="916" x2="957" y1="1920.8105" y2="1920.8105"/><polygon fill="#A80036" points="926,1916.8105,916,1920.8105,926,1924.8105,922,1920.8105" style="stroke: #A80036; stroke-width: 1.0;"/><text fill="#000000" font-family="WenQuanYi Micro Hei" font-size="12" lengthAdjust="spacingAndGlyphs" textLength="43" x="922" y="1860.7754">jwtUtils.</text><text fill="#000000" font-family="WenQuanYi Micro Hei" font-size="12" lengthAdjust="spacingAndGlyphs" textLength="118" x="922" y="1874.8438">validateRefreshToken</text><text fill="#000000" font-family="WenQuanYi Micro Hei" font-size="12" lengthAdjust="spacingAndGlyphs" textLength="105" x="922" y="1888.9121">验证 type="refresh"</text><text fill="#000000" font-family="WenQuanYi Micro Hei" font-size="12" lengthAdjust="spacingAndGlyphs" textLength="24" x="922" y="1902.9805">声明</text><polygon fill="#A80036" points="1118,1958.9473,1128,1962.9473,1118,1966.9473,1122,1962.9473" style="stroke: #A80036; stroke-width: 1.0;"/><line style="stroke: #A80036; stroke-width: 2.0;" x1="915" x2="1124" y1="1962.9473" y2="1962.9473"/><text fill="#000000" font-family="WenQuanYi Micro Hei" font-size="12" lengthAdjust="spacingAndGlyphs" textLength="115" x="922" y="1944.0488">isRefreshTokenValid(</text><text fill="#000000" font-family="WenQuanYi Micro Hei" font-size="12" lengthAdjust="spacingAndGlyphs" textLength="87" x="922" y="1958.1172">refreshTokenId)</text><polygon fill="#A80036" points="926,1987.0156,916,1991.0156,926,1995.0156,922,1991.0156" style="stroke: #A80036; stroke-width: 1.0;"/><line style="stroke: #A80036; stroke-width: 2.0; stroke-dasharray: 2.0,2.0;" x1="920" x2="1129" y1="1991.0156" y2="1991.0156"/><text fill="#000000" font-family="WenQuanYi Micro Hei" font-size="12" lengthAdjust="spacingAndGlyphs" textLength="24" x="932" y="1986.1855">有效</text><line style="stroke: #A80036; stroke-width: 2.0;" x1="915" x2="957" y1="2089.4258" y2="2089.4258"/><line style="stroke: #A80036; stroke-width: 2.0;" x1="957" x2="957" y1="2089.4258" y2="2102.4258"/><line style="stroke: #A80036; stroke-width: 2.0;" x1="916" x2="957" y1="2102.4258" y2="2102.4258"/><polygon fill="#A80036" points="926,2098.4258,916,2102.4258,926,2106.4258,922,2102.4258" style="stroke: #A80036; stroke-width: 1.0;"/><text fill="#000000" font-family="WenQuanYi Micro Hei" font-size="12" lengthAdjust="spacingAndGlyphs" textLength="87" x="922" y="2014.2539">generateToken(</text><text fill="#000000" font-family="WenQuanYi Micro Hei" font-size="12" lengthAdjust="spacingAndGlyphs" textLength="60" x="922" y="2028.3223">username)</text><text fill="#000000" font-family="WenQuanYi Micro Hei" font-size="12" lengthAdjust="spacingAndGlyphs" textLength="7" x="922" y="2042.3906">+</text><text fill="#000000" font-family="WenQuanYi Micro Hei" font-size="12" lengthAdjust="spacingAndGlyphs" textLength="124" x="922" y="2056.459">generateRefreshToken</text><text fill="#000000" font-family="WenQuanYi Micro Hei" font-size="12" lengthAdjust="spacingAndGlyphs" textLength="64" x="922" y="2070.5273">(username)</text><text fill="#000000" font-family="WenQuanYi Micro Hei" font-size="12" lengthAdjust="spacingAndGlyphs" textLength="76" x="922" y="2084.5957">双 Token 轮换</text><polygon fill="#A80036" points="193,2140.5625,183,2144.5625,193,2148.5625,189,2144.5625" style="stroke: #A80036; stroke-width: 1.0;"/><line style="stroke: #A80036; stroke-width: 2.0; stroke-dasharray: 2.0,2.0;" x1="187" x2="914" y1="2144.5625" y2="2144.5625"/><text fill="#000000" font-family="WenQuanYi Micro Hei" font-size="12" lengthAdjust="spacingAndGlyphs" textLength="117" x="199" y="2125.6641">200 {code:200, data:{</text><text fill="#000000" font-family="WenQuanYi Micro Hei" font-size="12" lengthAdjust="spacingAndGlyphs" textLength="117" x="199" y="2139.7324">token, refreshToken}}</text><line style="stroke: #A80036; stroke-width: 2.0;" x1="182" x2="224" y1="2186.6992" y2="2186.6992"/><line style="stroke: #A80036; stroke-width: 2.0;" x1="224" x2="224" y1="2186.6992" y2="2199.6992"/><line style="stroke: #A80036; stroke-width: 2.0;" x1="183" x2="224" y1="2199.6992" y2="2199.6992"/><polygon fill="#A80036" points="193,2195.6992,183,2199.6992,193,2203.6992,189,2199.6992" style="stroke: #A80036; stroke-width: 1.0;"/><text fill="#000000" font-family="WenQuanYi Micro Hei" font-size="12" lengthAdjust="spacingAndGlyphs" textLength="95" x="189" y="2167.8008">更新 localStorage</text><text fill="#000000" font-family="WenQuanYi Micro Hei" font-size="12" lengthAdjust="spacingAndGlyphs" textLength="60" x="189" y="2181.8691">重试原请求</text><rect fill="#EEEEEE" filter="url(#f12cw9uolrmdwl)" height="3" style="stroke: #EEEEEE; stroke-width: 1.0;" width="1186.5" x="3" y="2227.7334"/><line style="stroke: #000000; stroke-width: 1.0;" x1="3" x2="1189.5" y1="2227.7334" y2="2227.7334"/><line style="stroke: #000000; stroke-width: 1.0;" x1="3" x2="1189.5" y1="2230.7334" y2="2230.7334"/><rect fill="#EEEEEE" filter="url(#f12cw9uolrmdwl)" height="22.0684" style="stroke: #000000; stroke-width: 2.0;" width="41.75" x="575.375" y="2217.6992"/><text fill="#000000" font-family="WenQuanYi Micro Hei" font-size="12" font-weight="bold" lengthAdjust="spacingAndGlyphs" textLength="24.75" x="581.375" y="2232.9375">登出</text><polygon fill="#A80036" points="170,2265.8359,180,2269.8359,170,2273.8359,174,2269.8359" style="stroke: #A80036; stroke-width: 1.0;"/><line style="stroke: #A80036; stroke-width: 2.0;" x1="38" x2="176" y1="2269.8359" y2="2269.8359"/><text fill="#000000" font-family="WenQuanYi Micro Hei" font-size="12" lengthAdjust="spacingAndGlyphs" textLength="72" x="45" y="2265.0059">点击退出登录</text><polygon fill="#A80036" points="346,2336.1094,356,2340.1094,346,2344.1094,350,2340.1094" style="stroke: #A80036; stroke-width: 1.0;"/><line style="stroke: #A80036; stroke-width: 2.0;" x1="182" x2="352" y1="2340.1094" y2="2340.1094"/><text fill="#000000" font-family="WenQuanYi Micro Hei" font-size="12" lengthAdjust="spacingAndGlyphs" textLength="108" x="189" y="2293.0742">POST /api/v1/users/</text><text fill="#000000" font-family="WenQuanYi Micro Hei" font-size="12" lengthAdjust="spacingAndGlyphs" textLength="34" x="189" y="2307.1426">logout</text><text fill="#000000" font-family="WenQuanYi Micro Hei" font-size="12" lengthAdjust="spacingAndGlyphs" textLength="119" x="189" y="2321.2109">(Authorization: Bearer</text><text fill="#000000" font-family="WenQuanYi Micro Hei" font-size="12" lengthAdjust="spacingAndGlyphs" textLength="35" x="189" y="2335.2793">token)</text><line style="stroke: #A80036; stroke-width: 2.0;" x1="358" x2="400" y1="2410.3828" y2="2410.3828"/><line style="stroke: #A80036; stroke-width: 2.0;" x1="400" x2="400" y1="2410.3828" y2="2423.3828"/><line style="stroke: #A80036; stroke-width: 2.0;" x1="359" x2="400" y1="2423.3828" y2="2423.3828"/><polygon fill="#A80036" points="369,2419.3828,359,2423.3828,369,2427.3828,365,2423.3828" style="stroke: #A80036; stroke-width: 1.0;"/><text fill="#000000" font-family="WenQuanYi Micro Hei" font-size="12" lengthAdjust="spacingAndGlyphs" textLength="43" x="365" y="2363.3477">jwtUtils.</text><text fill="#000000" font-family="WenQuanYi Micro Hei" font-size="12" lengthAdjust="spacingAndGlyphs" textLength="91" x="365" y="2377.416">invalidateToken(</text><text fill="#000000" font-family="WenQuanYi Micro Hei" font-size="12" lengthAdjust="spacingAndGlyphs" textLength="35" x="365" y="2391.4844">token)</text><text fill="#000000" font-family="WenQuanYi Micro Hei" font-size="12" lengthAdjust="spacingAndGlyphs" textLength="96" x="365" y="2405.5527">加入 Redis 黑名单</text><polygon fill="#A80036" points="1118,2461.5195,1128,2465.5195,1118,2469.5195,1122,2465.5195" style="stroke: #A80036; stroke-width: 1.0;"/><line style="stroke: #A80036; stroke-width: 2.0;" x1="358" x2="1124" y1="2465.5195" y2="2465.5195"/><text fill="#000000" font-family="WenQuanYi Micro Hei" font-size="12" lengthAdjust="spacingAndGlyphs" textLength="137" x="365" y="2446.6211">removeTokenFromCache</text><text fill="#000000" font-family="WenQuanYi Micro Hei" font-size="12" lengthAdjust="spacingAndGlyphs" textLength="50" x="365" y="2460.6895">(tokenId)</text><polygon fill="#A80036" points="193,2489.5879,183,2493.5879,193,2497.5879,189,2493.5879" style="stroke: #A80036; stroke-width: 1.0;"/><line style="stroke: #A80036; stroke-width: 2.0; stroke-dasharray: 2.0,2.0;" x1="187" x2="357" y1="2493.5879" y2="2493.5879"/><text fill="#000000" font-family="WenQuanYi Micro Hei" font-size="12" lengthAdjust="spacingAndGlyphs" textLength="83" x="199" y="2488.7578">200 {code:200}</text><line style="stroke: #A80036; stroke-width: 2.0;" x1="182" x2="224" y1="2563.8613" y2="2563.8613"/><line style="stroke: #A80036; stroke-width: 2.0;" x1="224" x2="224" y1="2563.8613" y2="2576.8613"/><line style="stroke: #A80036; stroke-width: 2.0;" x1="183" x2="224" y1="2576.8613" y2="2576.8613"/><polygon fill="#A80036" points="193,2572.8613,183,2576.8613,193,2580.8613,189,2576.8613" style="stroke: #A80036; stroke-width: 1.0;"/><text fill="#000000" font-family="WenQuanYi Micro Hei" font-size="12" lengthAdjust="spacingAndGlyphs" textLength="94" x="189" y="2516.8262">clearAuthStorage</text><text fill="#000000" font-family="WenQuanYi Micro Hei" font-size="12" lengthAdjust="spacingAndGlyphs" textLength="72" x="189" y="2530.8945">(移除 token +</text><text fill="#000000" font-family="WenQuanYi Micro Hei" font-size="12" lengthAdjust="spacingAndGlyphs" textLength="82" x="189" y="2544.9629">refreshToken +</text><text fill="#000000" font-family="WenQuanYi Micro Hei" font-size="12" lengthAdjust="spacingAndGlyphs" textLength="49" x="189" y="2559.0313">userInfo)</text><polygon fill="#A80036" points="49,2600.9297,39,2604.9297,49,2608.9297,45,2604.9297" style="stroke: #A80036; stroke-width: 1.0;"/><line style="stroke: #A80036; stroke-width: 2.0; stroke-dasharray: 2.0,2.0;" x1="43" x2="181" y1="2604.9297" y2="2604.9297"/><text fill="#000000" font-family="WenQuanYi Micro Hei" font-size="12" lengthAdjust="spacingAndGlyphs" textLength="72" x="55" y="2600.0996">跳转至登录页</text><!--MD5=[a3f6c05957913d7447eee04c3ee0b438]
@startuml
skinparam backgroundColor #FAFAFA
skinparam defaultFontName WenQuanYi Micro Hei
skinparam defaultFontSize 12
skinparam sequenceArrowThickness 2
skinparam roundcorner 8
skinparam maxmessagesize 120
skinparam ParticipantPadding 40
skinparam BoxPadding 10

title 企业RAG — 登录流程

actor 用户 as User
participant "Vue 3 前端" as Browser
participant "UserController" as Ctrl
participant "RateLimitService" as RL
participant "UserService" as Svc
participant "AuthController" as AuthCtrl
database "MySQL\n(users 表)" as DB
database "Redis\n(Token 缓存)" as Redis

== 登录 ==

User -> Browser: 输入用户名、密码
Browser -> Ctrl: POST /api/v1/users/login\n{username, password}
Ctrl -> RL: checkLoginByIp(clientIp)
RL - -> Ctrl: IP 速率检查通过
Ctrl -> Svc: authenticateUser(username, password)
Svc -> DB: SELECT * FROM users\nWHERE username = ?
DB - -> Svc: user 实体 (含 BCrypt 哈希)
Svc -> Svc: PasswordUtil.matches(password, hash)
alt 密码匹配
    Svc -> Svc: jwtUtils.generateToken(username)\nclaims: userId, role, orgTags\n有效期 1 小时
    Svc -> Svc: jwtUtils.generateRefreshToken(username)\nclaims: type="refresh", userId\n有效期 7 天
    Svc -> Redis: SET token:{tokenId}\nvalue: userId\nEXPIRE 3600
    Redis - -> Svc: OK
    Svc - -> Ctrl: {token, refreshToken}
    Ctrl - -> Browser: 200 {code:200, message, data:{token, refreshToken}}
    Browser -> Browser: localStorage.setItem\n('token', token)\n('refreshToken', refreshToken)
    Browser - -> User: 跳转至原请求页面
else 密码不匹配
    Svc - -> Ctrl: CustomException\n("Invalid credentials")
    Ctrl - -> Browser: 401 {code:401, message:"Invalid credentials"}
    Browser - -> User: 提示错误，留在登录页
else 速率限制触发
    RL - -> Ctrl: RateLimitExceededException
    Ctrl - -> Browser: 429 {code:429, retryAfterSeconds: N}
    Browser - -> User: 提示稍后重试
end

== 获取用户信息 ==

Browser -> Ctrl: GET /api/v1/users/me\n(Authorization: Bearer token)
Ctrl -> Ctrl: jwtUtils.validateToken(token)\n提取 username
Ctrl -> DB: SELECT * FROM users\nWHERE username = ?
DB - -> Ctrl: user (id, username, role, orgTags, primaryOrg)
Ctrl - -> Browser: 200 {code:200, data:{id, userName, role, orgTags, primaryOrg}}
Browser -> Browser: 更新 authStore.userInfo

== Token 刷新 ==

note over Browser, Redis
  请求拦截器检测到 Token 即将过期 (剩余 < 5 分钟)
  或后端返回过期码 9999/9998/3333 时自动触发
end note
Browser -> AuthCtrl: POST /api/v1/auth/refreshToken\n{refreshToken}
AuthCtrl -> AuthCtrl: jwtUtils.validateRefreshToken\n验证 type="refresh" 声明
AuthCtrl -> Redis: isRefreshTokenValid(refreshTokenId)
Redis - -> AuthCtrl: 有效
AuthCtrl -> AuthCtrl: generateToken(username)\n+ generateRefreshToken(username)\n双 Token 轮换
AuthCtrl - -> Browser: 200 {code:200, data:{token, refreshToken}}
Browser -> Browser: 更新 localStorage\n重试原请求

== 登出 ==

User -> Browser: 点击退出登录
Browser -> Ctrl: POST /api/v1/users/logout\n(Authorization: Bearer token)
Ctrl -> Ctrl: jwtUtils.invalidateToken(token)\n加入 Redis 黑名单
Ctrl -> Redis: removeTokenFromCache(tokenId)
Ctrl - -> Browser: 200 {code:200}
Browser -> Browser: clearAuthStorage\n(移除 token + refreshToken + userInfo)
Browser - -> User: 跳转至登录页

@enduml

PlantUML version 1.2020.02(Sun Mar 01 18:22:07 CST 2020)
(GPL source distribution)
Java Runtime: OpenJDK Runtime Environment
JVM: OpenJDK 64-Bit Server VM
Java Version: 21.0.11+10-1-24.04.2-Ubuntu
Operating System: Linux
Default Encoding: UTF-8
Language: en
Country: null
--></g></svg>