<?xml version="1.0" standalone="no"?><!DOCTYPE svg PUBLIC "-//W3C//DTD SVG 1.1//EN" "http://www.w3.org/Graphics/SVG/1.1/DTD/svg11.dtd"><svg t="1783006292231" class="icon" viewBox="0 0 1024 1024" version="1.1" xmlns="http://www.w3.org/2000/svg" p-id="2076" xmlns:xlink="http://www.w3.org/1999/xlink" width="200" height="200"><path d="M437.913143 202.038506c-0.218988 0.01535-22.167882 1.370207-48.961108-2.308579-23.280216-3.196809-55.218626-10.93198-75.16184-29.626761-13.116739-12.297071-19.493983-27.898397-19.493983-47.697325 0-19.196201-10.429537-28.208459-16.648169-31.871895-21.430078-12.626575-50.761104 1.716084-59.239196 6.41306-32.714076 18.122753-56.450686 52.731992-66.835198 97.449449-8.900717 38.328957-6.345522 79.661318 6.670933 107.872846 0.830925 1.799996 1.691525 3.543709 2.567475 5.258771-30.160927 9.721409-55.243185 29.195949-73.089645 56.915267-18.738783 29.104875-28.64234 65.958224-28.64234 106.574271 0 45.962821 15.305591 88.520079 43.098587 119.832226 29.15604 32.849152 70.15685 50.939159 115.448382 50.939159 0.449231 0 0.889253-0.038886 1.331321-0.066515l0 6.866385c0 55.257511 3.233648 94.78476 19.329231 121.067356 20.524452 33.512255 57.006342 38.031175 89.986477 38.031175 11.30344 0 20.466124-9.162684 20.466124-20.466124s-9.162684-20.466124-20.466124-20.466124c-36.322254 0-48.287773-7.386224-55.080479-18.476817-11.692297-19.0908-13.302981-59.195194-13.302981-99.689467L259.89061 353.547175c0-8.989745-5.865591-16.927531-14.46034-19.564591-0.319272-0.098237-32.489972-10.885931-50.02023-48.864918-9.246595-20.040429-10.803044-52.016701-3.965312-81.461313 10.429537-44.911886 33.797757-63.700811 46.798862-70.903863 5.329379-2.952238 11.07115-4.923126 15.196097-5.815449 1.011027 29.333072 11.915377 53.91391 32.44904 73.118298 22.491247 21.035082 55.606459 34.611286 98.42466 40.353057 22.925129 3.074012 42.428322 2.975774 51.27378 2.698458 1.174756 0.203638 2.384303 0.299829 3.590781 0.300852l148.338467-0.672312c1.657756-0.007163 4.895497 0.092098 5.918803 0.092098 9.44307 0.234337 27.006074-0.537236 48.672536-3.442402 42.818201-5.740748 75.93239-19.317974 98.42466-40.352033 20.747533-19.403932 31.664164-44.297902 32.477692-74.036203 4.070712 0.7552 9.598612 2.758834 12.530384 5.025457 24.356734 18.818601 41.043788 44.059472 48.261167 72.992431 6.682189 26.79118 4.910846 56.078203-4.989641 82.4662-6.260587 16.690124-33.06507 39.603996-48.474015 50.116421-5.606695 3.809769-8.962116 10.148128-8.962116 16.926508 0 127.72908-0.008186 210.16458-0.014326 274.468119-0.004093 41.119513-0.007163 74.824149-0.007163 108.2177 0 44.926212-4.554736 66.433038-32.782637 83.319637-31.871895 19.068288-71.799256 29.30135-166.787654 32.400944-9.384741-11.313673-23.547299-18.520819-39.395242-18.520819l-66.289776 0c-28.257577 0-51.16531 22.907733-51.16531 51.16531s22.907733 51.16531 51.16531 51.16531l66.289776 0c25.570375 0 46.756907-18.758226 50.556443-43.264363 97.770767-3.850701 139.607618-15.664771 176.641069-37.820374 48.670489-29.116131 52.700269-72.641437 52.700269-118.445646 0-29.613458 0.002047-59.483766 0.00614-94.541213 0.632403 0.059352 1.270946 0.097214 1.919722 0.097214 45.211714 0 85.587284-18.205641 113.688295-51.264571 26.28669-30.924313 40.764426-73.361845 40.764426-119.496581 0-41.23924-10.191106-78.528518-29.470195-107.834984-18.285458-27.796066-43.88858-47.081295-74.619488-56.394405 0.950651-1.961678 1.816369-3.933589 2.560312-5.916756 12.785188-34.07712 15.050788-71.988568 6.380314-106.749256-9.467629-37.956474-31.234375-70.971401-62.947657-95.474468-12.754488-9.859555-39.495526-19.435655-59.006905-9.855462-12.351306 6.064113-19.435655 18.313088-19.435655 33.604352 0 19.798928-6.376221 35.401278-19.493983 47.698349-19.942191 18.694781-51.880601 26.428929-75.160817 29.625738-26.794249 3.677762-48.744167 2.322905-48.936549 2.309602M218.959386 366.846062l0 234.078223c-0.442068-0.027629-0.88209-0.066515-1.331321-0.066515-33.911344 0-63.247486-12.855796-84.835154-37.178761-21.137413-23.814382-32.778544-56.721863-32.778544-92.660376 0-32.741705 7.65126-61.932538 22.12695-84.416622 14.628162-22.721491 35.060517-37.07643 60.730153-42.669822 1.227967-0.267083 2.396583-0.655939 3.517103-1.121544C198.146361 354.559225 210.057645 362.183879 218.959386 366.846062zM896.71657 562.990325c-20.488637 24.102954-49.016367 36.843116-82.500992 36.843116-0.64673 0-1.284249 0.037862-1.915629 0.097214 0.005117-58.375525 0.011256-132.043339 0.011256-236.967016 6.733355-5.111414 16.21838-12.809747 25.577538-22.074761 1.471514 0.681522 3.03308 1.218758 4.694929 1.543146 62.782905 12.254092 85.152379 73.933873 85.152379 127.572514C927.735028 506.436284 916.72016 539.459399 896.71657 562.990325z" fill="#2c2c2c" p-id="2077"></path></svg>